<?xml version="1.0" encoding="UTF-8"?>
<svg width="123px" height="45px" viewBox="0 0 123 45" version="1.1" xmlns="http://www.w3.org/2000/svg" xmlns:xlink="http://www.w3.org/1999/xlink">
    <title>Group 34</title>
    <defs>
        <polygon id="path-1" points="0 0 39.731006 0 39.731006 45 0 45"></polygon>
        <polygon id="path-3" points="0 0 6.78541929 0 6.78541929 12.8327098 0 12.8327098"></polygon>
    </defs>
    <g id="ðŸ¢-Client" stroke="none" stroke-width="1" fill="none" fill-rule="evenodd">
        <g id="header-transparent" transform="translate(-164.000000, -11.000000)">
            <g id="Group-33" transform="translate(164.000000, 11.000000)">
                <g id="Group-3">
                    <mask id="mask-2" fill="white">
                        <use xlink:href="#path-1"></use>
                    </mask>
                    <g id="Clip-2"></g>
                    <path d="M26.6834831,6.87775572 L35.7311194,9.23346144 L22.0707285,2.06357214 L26.6834831,6.87775572 Z M19.8846656,1.0435205 L2.59905999,16.6894254 L25.6970982,7.10937646 L19.8846656,1.0435205 Z M25.9758424,8.50140183 L13.1609242,23.5617357 L25.5688913,21.2658526 L25.9758424,8.50140183 Z M1.45790279,18.1063768 L11.9281356,23.6633574 L24.9467219,8.36411668 L1.45790279,18.1063768 Z M26.4374643,21.4625768 L35.4943409,31.0598822 L26.8228552,9.37113007 L26.4374643,21.4625768 Z M27.1793705,7.90701083 L36.5130662,31.2535387 L38.816941,10.936871 L27.1793705,7.90701083 Z M1.79324284,19.2713832 L17.194245,41.8482705 L11.6705667,24.5135283 L1.79324284,19.2713832 Z M12.5999708,24.5511091 L18.5229,43.1398246 L25.351748,22.1915686 L12.5999708,24.5511091 Z M26.1822055,22.464605 L19.3094669,43.5482288 L36.0714646,32.942376 L26.1822055,22.464605 Z M18.518665,45.0000767 C18.5055748,45.0000767 18.4920996,45.0000767 18.4786244,44.9981593 C18.4389688,44.9943245 18.4000832,44.9855045 18.3638926,44.9720828 C18.2942066,44.9460063 18.2310656,44.9015228 18.1810149,44.8417003 L18.1810149,44.8413168 L18.1806299,44.8413168 C18.1713897,44.829429 18.1621496,44.8179246 18.1536795,44.8045029 L0.0757319535,18.3027176 C0.0187510945,18.2195028 -0.00550427114,18.1224829 0.00104082752,18.0285308 L0.00104082752,18.0281473 L0.00104082752,18.0277638 C0.00142583333,18.0273803 0.00142583333,18.0273803 0.00142583333,18.0269969 C0.00296585654,17.999003 0.00758592619,17.9713925 0.0149010365,17.9449326 L0.0149010365,17.9441656 L0.0152860423,17.9437821 C0.0341513267,17.8739891 0.0711118838,17.8080309 0.125397702,17.75281 C0.131557795,17.7462909 0.138872905,17.7397718 0.14580301,17.7336361 L19.6051514,0.119721851 C19.6259417,0.0997809914 19.648272,0.0825244787 19.6721424,0.0671853563 C19.7271982,0.0326723308 19.7876441,0.0111975594 19.84963,0.00352799816 C19.911616,-0.00452504112 19.977067,0.00122712979 20.0394379,0.0200175548 C20.0663883,0.0288375502 20.0933387,0.040341892 20.1187491,0.0545305802 L39.4895461,10.2213009 C39.5600022,10.2569644 39.618138,10.3095009 39.6597187,10.3723913 L39.6597187,10.3727748 C39.6601037,10.3727748 39.6601037,10.3731582 39.6601037,10.3731582 L39.6604887,10.3735417 C39.6604887,10.3739252 39.6604887,10.3739252 39.6608737,10.3743087 L39.6612587,10.3754591 C39.6616437,10.3758426 39.6616437,10.3762261 39.6616437,10.3762261 L39.6620287,10.3766095 C39.6651088,10.3812113 39.6681888,10.385813 39.6704988,10.3904148 L39.6712688,10.3911817 C39.6712688,10.3915652 39.6716539,10.3915652 39.6716539,10.3915652 L39.6720389,10.3927156 C39.6724239,10.3930991 39.6724239,10.3934826 39.6728089,10.3942495 C39.6728089,10.394633 39.6731939,10.394633 39.6731939,10.394633 L39.6731939,10.3950165 C39.7193946,10.4751634 39.7397999,10.570266 39.7274797,10.6661355 L37.1868264,33.0719916 C37.1849014,33.092316 37.1814363,33.1126403 37.1764312,33.1325811 C37.1764312,33.1333481 37.1756612,33.1337316 37.1756612,33.134882 L37.1752762,33.1352655 C37.1710412,33.1536724 37.1652661,33.1705455 37.158336,33.187802 L37.158336,33.1881855 L37.158336,33.1885689 C37.1271505,33.2667985 37.0732497,33.3358245 37.0008686,33.3860601 C37.0004836,33.3860601 37.0004836,33.3864436 37.0004836,33.3864436 C37.0004836,33.3864436 37.0000986,33.3864436 36.9993286,33.3868271 C36.9954785,33.3898949 36.9908584,33.3929628 36.9862384,33.3952636 L18.7539035,44.9314341 C18.7485134,44.9348854 18.7427384,44.9383367 18.7369633,44.941788 C18.6688172,44.9812863 18.5929711,45.0000767 18.518665,45.0000767 L18.518665,45.0000767 Z" id="Fill-1" fill="#EA9675" mask="url(#mask-2)"></path>
                </g>
                <path d="M50.6745422,8.4573402 C50.4212084,8.20501163 50.2945415,7.88058919 50.2945415,7.48407288 C50.2945415,7.02735051 50.4393037,6.64885766 50.728828,6.34859434 C51.0183524,6.04833102 51.4045132,5.89800762 51.8869255,5.89800762 C52.3693378,5.89800762 52.7374033,6.02723972 52.9907371,6.28532046 C53.244071,6.54416815 53.3707379,6.86552277 53.3707379,7.24976778 C53.3707379,7.73026579 53.2259757,8.11451081 52.9364513,8.40288631 C52.6469269,8.69126181 52.2426709,8.83544956 51.724068,8.83544956 L51.7059728,8.83544956 C51.2716862,8.83544956 50.927876,8.70966876 50.6745422,8.4573402 L50.6745422,8.4573402 Z M50.7469233,12.1881982 L49.4621589,11.8457523 L49.4621589,10.6381799 L52.7735939,10.2412801 L52.8097844,10.2412801 L53.316452,10.602133 L53.316452,19.2714215 L54.5288353,19.4156093 L54.5288353,20.4970174 L49.4802542,20.4970174 L49.4802542,19.4156093 L50.7469233,19.2530146 L50.7469233,12.1881982 Z" id="Fill-4" fill="#3E4042"></path>
                <path d="M56.8447607,12.1880449 L55.6866633,11.8636224 L55.6866633,10.6200031 L58.6904786,10.2415102 L58.7447644,10.2415102 L59.1971462,10.6019796 L59.1971462,11.3048949 L59.1790509,11.7374581 C59.6010173,11.3409418 60.1500356,10.9984959 60.8257207,10.7101204 C61.5010209,10.4221284 62.1828662,10.2779406 62.8704866,10.2779406 C63.6062327,10.2779406 64.1825863,10.4129249 64.5987776,10.6832769 C65.0145839,10.9532455 65.3133484,11.3769888 65.4943011,11.9541232 C65.6752538,12.5308742 65.7657302,13.3120191 65.7657302,14.2967907 L65.7657302,19.2716516 L66.8695419,19.4158393 L66.8695419,20.496864 L62.2009615,20.496864 L62.2009615,19.4158393 L63.1781062,19.2716516 L63.1781062,14.2967907 C63.1781062,13.672105 63.1357556,13.1827869 63.0514393,12.8280697 C62.966738,12.473736 62.8131207,12.2148883 62.5898173,12.0526771 C62.366514,11.8908494 62.0500392,11.8099355 61.640008,11.8099355 C60.9523877,11.8099355 60.2162566,12.1040632 59.4323847,12.692702 L59.4323847,19.2532447 L60.5181011,19.4158393 L60.5181011,20.496864 L55.7952349,20.496864 L55.7952349,19.4158393 L56.8447607,19.2532447 L56.8447607,12.1880449 Z" id="Fill-6" fill="#3E4042"></path>
                <path d="M69.5114132,20.1365864 C69.1495077,19.7880048 68.968555,19.2350294 68.968555,18.4784272 L68.968555,11.8638142 L67.7923623,11.8638142 L67.7923623,10.9262103 C67.8886137,10.8905468 68.0637914,10.8276564 68.3171252,10.7371556 C68.570459,10.6470383 68.7633469,10.57226 68.8961739,10.5116705 C69.100997,10.3559784 69.2761746,10.0856264 69.4209368,9.7009979 C69.5295084,9.44866933 69.7285564,8.82398357 70.0180808,7.82617366 L71.4657026,7.82617366 L71.5380837,10.4760071 L74.3066605,10.4760071 L74.3066605,11.8638142 L71.556179,11.8638142 L71.556179,16.9284089 C71.556179,17.6014129 71.5742743,18.0757753 71.6104648,18.3522629 C71.6466554,18.6283672 71.7251965,18.805534 71.8457034,18.8837635 C71.9658252,18.9619931 72.1771934,19.0011078 72.4790379,19.0011078 C72.7804975,19.0011078 73.0942772,18.9681287 73.4199921,18.901787 C73.745707,18.8358288 74.0171361,18.7545314 74.2342794,18.6586619 L74.5780896,19.6675927 C74.2400545,19.9203047 73.745707,20.1484742 73.0942772,20.3524845 C72.4428474,20.5568783 71.8095128,20.6588835 71.1942735,20.6588835 C70.4342721,20.6588835 69.8733186,20.4851679 69.5114132,20.1365864" id="Fill-8" fill="#3E4042"></path>
                <path d="M75.536908,19.4336711 L76.731196,19.2894833 L76.731196,12.1878531 L75.5730986,11.8638142 L75.5730986,10.6201948 L78.3778658,10.2413185 L78.4321517,10.2413185 L78.8845335,10.6021713 L78.8845335,10.9986877 L78.8302477,12.4585886 L78.8845335,12.4585886 C78.9688497,12.2185314 79.1678977,11.9209524 79.4816775,11.5662352 C79.7950722,11.2122849 80.1900882,10.8993668 80.6667253,10.6290148 C81.1433625,10.3586628 81.6588853,10.223295 82.2140637,10.223295 C82.4793327,10.223295 82.7084111,10.2597254 82.901684,10.3318193 L82.901684,13.0349562 C82.5397786,12.7826276 82.0989469,12.6568468 81.5807291,12.6568468 C80.6998358,12.6568468 79.9340593,12.8907684 79.2826295,13.3597621 L79.2826295,19.2714599 L81.3816811,19.4336711 L81.3816811,20.4966723 L75.536908,20.4966723 L75.536908,19.4336711 Z" id="Fill-10" fill="#3E4042"></path>
                <path d="M88.9453896,18.9738042 C89.2711045,18.8238643 89.5544688,18.6405618 89.7958675,18.4242801 L89.7958675,15.4684312 C88.7101511,15.4684312 87.8985589,15.6517337 87.3618608,16.0179553 C86.8251627,16.3849438 86.5568136,16.8562383 86.5568136,17.4326059 C86.5568136,18.0097403 86.6923357,18.4484392 86.9641498,18.7487026 C87.2351939,19.0489659 87.6063395,19.1992893 88.0768165,19.1992893 C88.3301504,19.1992893 88.6196747,19.1245111 88.9453896,18.9738042 M85.5161429,15.2161027 C86.6199546,14.6635108 88.0464011,14.3808875 89.7958675,14.3689996 L89.7958675,13.9544598 C89.7958675,13.462074 89.7442767,13.0774455 89.6418651,12.8009578 C89.5394536,12.5248536 89.3523408,12.317392 89.0812967,12.1789564 C88.8094826,12.0412878 88.4144666,11.9718783 87.8958638,11.9718783 C87.3044949,11.9718783 86.7739569,12.04704 86.3034798,12.1969799 C85.8330027,12.3476868 85.3444304,12.5424936 84.8377627,12.7825509 L84.2768093,11.6294324 C84.457762,11.4733568 84.7623016,11.2869865 85.190813,11.0707048 C85.6185545,10.8544232 86.1283022,10.664985 86.7196711,10.5027738 C87.310655,10.3405626 87.9197342,10.2596487 88.5472936,10.2596487 C89.4759276,10.2596487 90.2028186,10.3800608 90.7275815,10.6201181 C91.2523444,10.8605589 91.6292651,11.2451874 91.8587286,11.7736201 C92.087807,12.3028198 92.2025387,13.0111038 92.2025387,13.9003894 L92.2025387,19.4155709 L93.1796835,19.4155709 L93.1796835,20.4248852 C92.9382848,20.4850912 92.5944746,20.5449138 92.1482529,20.6051199 C91.7016462,20.6649424 91.3097103,20.6952372 90.9720602,20.6952372 C90.561644,20.6952372 90.2871349,20.6350311 90.1485328,20.5150025 C90.0099307,20.3949739 89.9406296,20.1483975 89.9406296,19.7760403 L89.9406296,19.2894066 C89.6149147,19.649876 89.1925634,19.9742984 88.6739605,20.2626739 C88.1549727,20.5510495 87.5701489,20.6952372 86.9187191,20.6952372 C86.3635407,20.6952372 85.853793,20.5782764 85.389476,20.3435878 C84.925159,20.1092827 84.5540134,19.7668368 84.2768093,19.3166336 C83.9992201,18.8660469 83.860618,18.322275 83.860618,17.6853179 C83.860618,16.592022 84.4127163,15.769078 85.5161429,15.2161027" id="Fill-12" fill="#3E4042"></path>
                <path d="M95.3146947,12.1880449 L94.1565972,11.8636224 L94.1565972,10.6200031 L97.1604125,10.2415102 L97.2146983,10.2415102 L97.6670801,10.6019796 L97.6670801,11.3048949 L97.6489848,11.7374581 C98.0709512,11.3409418 98.6199695,10.9984959 99.2956547,10.7101204 C99.9709548,10.4221284 100.6528,10.2779406 101.34042,10.2779406 C102.076167,10.2779406 102.65252,10.4129249 103.068712,10.6832769 C103.484518,10.9532455 103.783282,11.3769888 103.964235,11.9541232 C104.145188,12.5308742 104.235664,13.3120191 104.235664,14.2967907 L104.235664,19.2716516 L105.339476,19.4158393 L105.339476,20.496864 L100.670895,20.496864 L100.670895,19.4158393 L101.64804,19.2716516 L101.64804,14.2967907 C101.64804,13.672105 101.605689,13.1827869 101.521373,12.8280697 C101.436672,12.473736 101.283055,12.2148883 101.059751,12.0526771 C100.836448,11.8908494 100.519973,11.8099355 100.109942,11.8099355 C99.4223216,11.8099355 98.6861905,12.1040632 97.9023187,12.692702 L97.9023187,19.2532447 L98.988035,19.4158393 L98.988035,20.496864 L94.2651688,20.496864 L94.2651688,19.4158393 L95.3146947,19.2532447 L95.3146947,12.1880449 Z" id="Fill-14" fill="#3E4042"></path>
                <path d="M112.595603,14.549196 C112.619474,14.2128857 112.631794,13.9544215 112.631794,13.7741868 C112.631794,12.1766172 112.094711,11.3770655 111.021314,11.3770655 C110.429946,11.3770655 109.971789,11.6113706 109.646074,12.0799807 C109.320359,12.5485909 109.139406,13.3719183 109.103216,14.549196 L112.595603,14.549196 Z M107.628643,19.2985718 C106.850547,18.367487 106.461306,17.0970242 106.461306,15.4864164 C106.461306,14.4050082 106.663049,13.4677878 107.06769,12.6747552 C107.471561,11.8817226 108.04137,11.2750603 108.777501,10.8543849 C109.513247,10.4340929 110.363725,10.2235634 111.328934,10.2235634 C112.535157,10.2235634 113.464176,10.5391659 114.115606,11.1696038 C114.767036,11.8004252 115.104686,12.6989143 115.128941,13.8643042 C115.128941,14.6573368 115.080816,15.2459756 114.984179,15.6306041 L109.103216,15.6306041 C109.151341,16.7242835 109.410835,17.5744544 109.881312,18.1811167 C110.351789,18.787779 111.021314,19.0911101 111.889888,19.0911101 C112.360365,19.0911101 112.845857,19.0132641 113.346749,18.856805 C113.846872,18.7007295 114.242273,18.5143591 114.531797,18.2980775 L114.984179,19.2893683 C114.658464,19.6383333 114.130621,19.9593045 113.40065,20.2538156 C112.670679,20.5479433 111.931853,20.6951989 111.184172,20.6951989 C109.591788,20.6951989 108.40674,20.2296565 107.628643,19.2985718 L107.628643,19.2985718 Z" id="Fill-16" fill="#3E4042"></path>
                <g id="Group-20" transform="translate(116.214581, 7.826174)">
                    <mask id="mask-4" fill="white">
                        <use xlink:href="#path-3"></use>
                    </mask>
                    <g id="Clip-19"></g>
                    <path d="M1.71905091,12.3104127 C1.35714546,11.9618312 1.17619273,11.4088558 1.17619273,10.6522536 L1.17619273,4.0376405 L0,4.0376405 L0,3.10003664 C0.096251451,3.06437318 0.271429092,3.00148278 0.524762911,2.91098196 C0.77809673,2.82086462 0.970984637,2.74608639 1.10381164,2.68549686 C1.30863473,2.52980477 1.48381237,2.25945273 1.62857455,1.87482424 C1.73714619,1.62249568 1.93619419,0.997809914 2.22571855,0 L3.67334037,0 L3.74572147,2.6498334 L6.5142982,2.6498334 L6.5142982,4.0376405 L3.76381674,4.0376405 L3.76381674,9.10223525 C3.76381674,9.77523925 3.78191201,10.2496016 3.81810256,10.5260893 C3.8542931,10.8021935 3.93283429,10.9793604 4.0533411,11.0575899 C4.17346291,11.1358194 4.3848311,11.1749342 4.68667565,11.1749342 C4.98813519,11.1749342 5.30191492,11.1419551 5.62762983,11.0756134 C5.95334474,11.0096551 6.22477384,10.9283578 6.44191711,10.8324883 L6.78572729,11.841419 C6.4476922,12.0941311 5.95334474,12.3223005 5.30191492,12.5263109 C4.6504851,12.7307047 4.01715056,12.8327098 3.40191128,12.8327098 C2.64190983,12.8327098 2.08095637,12.6589943 1.71905091,12.3104127" id="Fill-18" fill="#3E4042" mask="url(#mask-4)"></path>
                </g>
                <path d="M50.6745422,26.8642871 C50.4212084,26.6119586 50.2945415,26.2875361 50.2945415,25.8910198 C50.2945415,25.4342974 50.4393037,25.0561881 50.728828,24.7555413 C51.0183524,24.4556614 51.4045132,24.3049545 51.8869255,24.3049545 C52.3693378,24.3049545 52.7374033,24.4341866 52.9907371,24.6926509 C53.244071,24.9511151 53.3707379,25.2724697 53.3707379,25.6570982 C53.3707379,26.1372127 53.2259757,26.5218412 52.9364513,26.8102167 C52.6469269,27.0985922 52.2426709,27.24278 51.724068,27.24278 L51.7059728,27.24278 C51.2716862,27.24278 50.927876,27.1166157 50.6745422,26.8642871 L50.6745422,26.8642871 Z M50.7469233,30.5951452 L49.4621589,30.2530827 L49.4621589,29.0451268 L52.7735939,28.6486105 L52.8097844,28.6486105 L53.316452,29.0094634 L53.316452,37.6783684 L54.5288353,37.8225562 L54.5288353,38.9039643 L49.4802542,38.9039643 L49.4802542,37.8225562 L50.7469233,37.660345 L50.7469233,30.5951452 Z" id="Fill-21" fill="#3E4042"></path>
                <path d="M56.8447607,30.5953369 L55.6866633,30.2709145 L55.6866633,29.0272951 L58.6904786,28.6488023 L58.7447644,28.6488023 L59.1971462,29.0092716 L59.1971462,29.7121869 L59.1790509,30.1447502 C59.6010173,29.7482339 60.1500356,29.405788 60.8257207,29.1174125 C61.5010209,28.829037 62.1828662,28.6848492 62.8704866,28.6848492 C63.6062327,28.6848492 64.1825863,28.8198335 64.5987776,29.0901855 C65.0145839,29.3605376 65.3133484,29.7842808 65.4943011,30.3610318 C65.6752538,30.9377828 65.7657302,31.7189276 65.7657302,32.7040828 L65.7657302,37.6785602 L66.8695419,37.8227479 L66.8695419,38.9041561 L62.2009615,38.9041561 L62.2009615,37.8227479 L63.1781062,37.6785602 L63.1781062,32.7040828 C63.1781062,32.079397 63.1357556,31.5896955 63.0514393,31.2353618 C62.966738,30.8810281 62.8131207,30.6221804 62.5898173,30.4599692 C62.366514,30.2981414 62.0500392,30.2168441 61.640008,30.2168441 C60.9523877,30.2168441 60.2162566,30.5113552 59.4323847,31.099994 L59.4323847,37.6605367 L60.5181011,37.8227479 L60.5181011,38.9041561 L55.7952349,38.9041561 L55.7952349,37.8227479 L56.8447607,37.6605367 L56.8447607,30.5953369 Z" id="Fill-23" fill="#3E4042"></path>
                <path d="M70.1628045,37.4264233 C70.2590559,37.5706111 70.4792793,37.7055954 70.8230894,37.8317597 C71.1668996,37.9579239 71.5137899,38.0211978 71.8637601,38.0211978 C72.4308737,38.0211978 72.8559201,37.9038535 73.1392844,37.6695484 C73.4226486,37.4352433 73.5647158,37.12616 73.5647158,36.7415315 C73.5647158,36.3450152 73.3895381,36.0236606 73.0399529,35.7770842 C72.6899826,35.5312748 72.0989987,35.2275601 71.2666161,34.8667073 L70.7599485,34.6508091 C69.9275659,34.3026111 69.3061666,33.8819356 68.8961354,33.3891663 C68.4861042,32.896397 68.2808961,32.25944 68.2808961,31.4782951 C68.2808961,30.9375911 68.4437536,30.4540252 68.7694685,30.0275976 C69.0951834,29.60117 69.5533403,29.2679276 70.1447092,29.0274869 C70.7356931,28.7870461 71.4171534,28.666634 72.189475,28.666634 C72.7562036,28.666634 73.2416959,28.7030644 73.645952,28.7747748 C74.0502081,28.8472522 74.4752545,28.9435052 74.9218612,29.0631503 C75.1628749,29.1475155 75.3442126,29.1958337 75.4647194,29.2073381 L75.4647194,31.568796 L74.0351929,31.568796 L73.6190016,30.1986289 C73.5466205,30.0789837 73.3837631,29.9708429 73.1304292,29.8745899 C72.8770954,29.7783369 72.587571,29.7304021 72.2618561,29.7304021 C71.7671237,29.7304021 71.3721077,29.8354751 71.0768083,30.0456211 C70.7807388,30.2561506 70.6332816,30.5475939 70.6332816,30.9195676 C70.6332816,31.2562613 70.7356931,31.5358169 70.9409012,31.7578506 C71.1457243,31.9802679 71.3690277,32.1516826 71.6104263,32.2717112 C71.85144,32.3917399 72.2980467,32.589998 72.9494765,32.8661022 C73.6009063,33.1429734 74.1406845,33.4071898 74.5688109,33.6595184 C74.9969374,33.9118469 75.3530677,34.2389537 75.636432,34.6416057 C75.9197963,35.0442576 76.0618634,35.5335756 76.0618634,36.1103266 C76.0618634,36.9999957 75.7118931,37.7209345 75.0123376,38.2735264 C74.312397,38.8261183 73.3052219,39.1022225 71.990427,39.1022225 C71.3751878,39.1022225 70.8230894,39.0481521 70.3345171,38.9400112 C69.8459447,38.8318704 69.2819112,38.6876827 68.6428016,38.507448 L68.2447056,38.3812837 L68.2447056,36.0021858 L69.7466132,36.0021858 L70.1628045,37.4264233 Z" id="Fill-25" fill="#3E4042"></path>
                <path d="M78.6675442,26.8642871 C78.4142104,26.6119586 78.2875435,26.2875361 78.2875435,25.8910198 C78.2875435,25.4342974 78.4323057,25.0561881 78.72183,24.7555413 C79.0113544,24.4556614 79.3975152,24.3049545 79.8799275,24.3049545 C80.3623398,24.3049545 80.7304053,24.4341866 80.9837391,24.6926509 C81.2370729,24.9511151 81.3637398,25.2724697 81.3637398,25.6570982 C81.3637398,26.1372127 81.2189777,26.5218412 80.9294533,26.8102167 C80.6399289,27.0985922 80.2356728,27.24278 79.71707,27.24278 L79.6989748,27.24278 C79.2646882,27.24278 78.920878,27.1166157 78.6675442,26.8642871 L78.6675442,26.8642871 Z M78.7399253,30.5951452 L77.4551609,30.2530827 L77.4551609,29.0451268 L80.7665958,28.6486105 L80.8027864,28.6486105 L81.309454,29.0094634 L81.309454,37.6783684 L82.5218373,37.8225562 L82.5218373,38.9039643 L77.4732562,38.9039643 L77.4732562,37.8225562 L78.7399253,37.660345 L78.7399253,30.5951452 Z" id="Fill-27" fill="#3E4042"></path>
                <path d="M89.6057901,37.3631495 C89.9134097,37.2009382 90.1578884,37.0057479 90.3388411,36.7775785 L90.3388411,30.2166523 C90.2541399,30.0970072 90.0762672,29.9946185 89.8048381,29.9102534 C89.533409,29.8266551 89.2408046,29.7840891 88.9274099,29.7840891 C88.1550882,29.7840891 87.5367689,30.117715 87.0724519,30.7845833 C86.6077499,31.4514517 86.3759764,32.5179042 86.3759764,33.9835573 C86.3759764,35.2095367 86.5746394,36.1195301 86.9731204,36.7143046 C87.3712164,37.3090791 87.8959793,37.606658 88.5470241,37.606658 C88.9455051,37.606658 89.2981705,37.5253607 89.6057901,37.3631495 M85.5978797,38.5707219 C85.0065108,38.2167716 84.5360337,37.6668641 84.1864484,36.9217662 C83.8364781,36.1766683 83.6616855,35.2455836 83.6616855,34.1277451 C83.6616855,33.1188143 83.8695886,32.1965495 84.2857799,31.3613343 C84.7019712,30.5265026 85.3141304,29.8623186 86.1226426,29.3695493 C86.9303848,28.8771635 87.9017544,28.6309705 89.0359815,28.6309705 C89.4941384,28.6309705 89.928425,28.6789053 90.3388411,28.7747748 L90.3388411,25.7288086 L88.5655044,25.47648 L88.5655044,24.4851892 L92.2927456,24.1251033 L92.3474164,24.1251033 L92.8540841,24.5032127 L92.8540841,37.8045327 L93.8312288,37.8045327 L93.8312288,38.8318704 C92.9626557,39.0124886 92.2446199,39.1022225 91.6778913,39.1022225 C91.2913455,39.1022225 91.0172214,39.0393321 90.8543639,38.9131678 C90.6915065,38.7870035 90.6102702,38.5377428 90.6102702,38.1653856 L90.6102702,37.660345 C90.2961055,38.0814039 89.8683641,38.4265341 89.3251209,38.6972696 C88.7826477,38.9672382 88.209374,39.1022225 87.606455,39.1022225 C86.8580037,39.1022225 86.1888636,38.9250556 85.5978797,38.5707219" id="Fill-29" fill="#3E4042"></path>
                <path d="M101.123277,32.9565264 C101.147148,32.6202161 101.159468,32.3617519 101.159468,32.1815172 C101.159468,30.5835641 100.622385,29.7843959 99.5489885,29.7843959 C98.9576196,29.7843959 98.4994627,30.0187009 98.1737478,30.4873111 C97.8480328,30.9559213 97.6670801,31.7792487 97.6308896,32.9565264 L101.123277,32.9565264 Z M96.1563173,37.7055187 C95.3782206,36.7744339 94.9889797,35.5039711 94.9889797,33.8933633 C94.9889797,32.8123386 95.1907228,31.8751182 95.5953639,31.0817021 C95.999235,30.289053 96.5690436,29.6823907 97.3051747,29.2617153 C98.0409207,28.8414233 98.8913986,28.6308938 99.8566081,28.6308938 C101.062831,28.6308938 101.99185,28.9461128 102.64328,29.5769342 C103.29471,30.2077556 103.63236,31.1062447 103.656615,32.2716346 C103.656615,33.0646672 103.60849,33.653306 103.511853,34.037551 L97.6308896,34.037551 C97.6790153,35.1312305 97.9385092,35.9817848 98.4089863,36.5884471 C98.8794634,37.1951094 99.5489885,37.4984405 100.417562,37.4984405 C100.888039,37.4984405 101.373531,37.4205945 101.874424,37.2637519 C102.374546,37.1080599 102.769947,36.9216895 103.059471,36.7050244 L103.511853,37.6963152 C103.186138,38.0452802 102.658295,38.3662514 101.928324,38.6607625 C101.198353,38.9552737 100.459527,39.1021458 99.7118459,39.1021458 C98.1194619,39.1021458 96.9344141,38.6369869 96.1563173,37.7055187 L96.1563173,37.7055187 Z" id="Fill-31" fill="#3E4042"></path>
            </g>
        </g>
    </g>
</svg>