<?xml version="1.0" encoding="UTF-8"?>
<svg width="172px" height="51px" viewBox="0 0 172 51" version="1.1" xmlns="http://www.w3.org/2000/svg" xmlns:xlink="http://www.w3.org/1999/xlink">
    <title>Group 48</title>
    <defs>
        <polygon id="path-1" points="0 0 11.4396569 0 11.4396569 12.057297 0 12.057297"></polygon>
    </defs>
    <g id="Page-1" stroke="none" stroke-width="1" fill="none" fill-rule="evenodd">
        <g id="F1RSTARKEA_DESKTOP-@2x" transform="translate(-48.000000, -32.000000)">
            <g id="Group-48" transform="translate(48.000000, 32.000000)">
                <polygon id="Fill-1" fill="#FFFFFF" points="0 1 0 33 6.2277043 33 6.2277043 19.2538953 24.2386875 19.2538953 24.2386875 14.4760996 6.2277043 14.4760996 6.2277043 5.82265282 25 5.82265282 25 1"></polygon>
                <g id="Group-47">
                    <path d="M36.3970945,32.9598131 L36.3970945,32.0560796 C36.3970945,32.0560796 40.0782086,30.3126285 40.1101529,29.1069107 L40.1101529,4.91181039 L36.1591349,4.01319815 L36.1591349,2.91946551 C37.9358887,2.60297101 43.7410444,0.8581542 45.9187251,0 L46.4899649,0.475424597 L46.5839188,23.0177203 C46.5839188,23.8430983 46.5914351,25.5452379 46.6078343,26.6389705 C46.6233794,27.7328739 46.6317498,28.0442471 46.6317498,29.0589415 C46.6317498,30.295899 50.3921269,32.0560796 50.3921269,32.0560796 L50.3921269,32.9598131 L36.3970945,32.9598131 Z" id="Fill-2" fill="#D9A767"></path>
                    <path d="M70.8305523,16.1031347 L79.6663194,16.1031347 C84.2627154,16.1031347 85.8247418,13.7389856 85.8247418,10.9299688 C85.8247418,8.16516565 84.3073008,5.89029737 79.6663194,5.89029737 L70.8305523,5.89029737 L70.8305523,16.1031347 Z M78.8183427,20.5620541 L70.8305523,20.5620541 L70.8305523,32.959796 L64.6275446,32.959796 L64.6275446,1.29703 L80.8265648,1.29703 C89.5729902,1.29703 92.2954328,5.97957818 92.2954328,10.8849016 C92.2954328,14.4976164 90.3763815,18.4215338 85.2000337,19.7600631 L93.3663365,32.959796 L86.4046936,32.959796 L78.8183427,20.5620541 Z" id="Fill-4" fill="#FFFFFF"></path>
                    <path d="M103.185938,24.6654207 L108.362285,22.3463388 C109.879897,26.3153233 113.360463,29.1243401 119.340372,29.1243401 C124.025768,29.1243401 127.105065,27.7421092 127.105065,24.4417919 C127.105065,21.4992807 125.23077,20.4285938 121.259082,19.8043109 L114.475952,18.867972 C108.496383,17.931633 105.015647,15.2110435 105.015647,9.77071805 C105.015647,3.97344002 110.102995,0.405792391 118.626494,0.405792391 C125.811063,0.405792391 131.121509,2.94764957 133.219073,8.34376142 L128.399237,10.9300029 C126.971138,7.13958006 123.669085,4.99905976 118.358298,4.99905976 C113.851585,4.99905976 111.173899,6.60389518 111.173899,9.32431398 C111.173899,11.9556227 112.691169,13.1598041 116.707442,13.7840869 L123.222719,14.7646395 C129.78241,15.7460456 133.352487,18.1987927 133.352487,23.8625762 C133.352487,29.7936901 128.443823,33.8517847 119.117275,33.8517847 C110.459678,33.8517847 105.015647,30.2843078 103.185938,24.6654207" id="Fill-6" fill="#FFFFFF"></path>
                    <polygon id="Fill-8" fill="#FFFFFF" points="172 6.24743769 160.531303 6.24743769 160.531303 32.9598131 154.328466 32.9598131 154.328466 6.24743769 142.859769 6.24743769 142.859769 1.29704707 172 1.29704707"></polygon>
                    <path d="M69.6839076,48.6862271 C69.6825381,48.0764545 69.2952772,47.6298798 68.3796536,47.6319213 L66.05028,47.6370495 L66.0548923,49.7818376 L68.3436095,49.7770577 C69.3200468,49.7748385 69.6851005,49.2961704 69.6839076,48.6862271 L69.6839076,48.6862271 Z M66.0437887,44.6383751 L66.0482301,46.6409625 L68.2148072,46.6363533 C69.2624787,46.6339634 69.4850641,46.1051069 69.4840426,45.6170498 C69.4830142,45.1289927 69.2073021,44.6315467 68.2103658,44.633928 L66.0437887,44.6383751 Z M71.1183309,48.7953102 C71.1207162,49.8420978 70.441344,50.8091644 68.6104386,50.81292 L64.6431922,50.8219676 L64.6274762,43.6049027 L68.4725826,43.5965244 C70.2628316,43.5924409 70.9160675,44.5159767 70.9179466,45.4613632 C70.919484,46.1931927 70.4936165,46.8451304 69.6195036,47.0600531 C70.5962825,47.210277 71.1164455,47.8499237 71.1183309,48.7953102 L71.1183309,48.7953102 Z" id="Fill-10" fill="#FFFFFF"></path>
                    <path d="M74.210621,43.5841274 L74.2200164,47.8735327 C74.222408,49.0323055 74.9463655,49.8443683 76.2383172,49.8412955 C77.5095989,49.8385642 78.2402187,49.0234286 78.2378271,47.8644852 L78.2284317,43.5750798 L79.6423526,43.5725192 L79.6519282,47.9534246 C79.6558478,49.762428 78.4279557,50.994947 76.2408795,50.9999115 C74.0437247,51.0046774 72.8101953,49.7772796 72.8064372,47.9682762 L72.796871,43.5873709 L74.210621,43.5841274 Z" id="Fill-12" fill="#FFFFFF"></path>
                    <path d="M80.998005,48.8952774 L82.1766995,48.3645431 C82.5243289,49.2682766 83.3193498,49.9072404 84.682194,49.9043384 C85.7503645,49.9017777 86.4514314,49.5851125 86.449894,48.8329686 C86.4485274,48.1619115 86.0206101,47.9191633 85.1150652,47.7786697 L83.5685839,47.5686977 C82.2050565,47.3580427 81.4102064,46.7399054 81.4073024,45.4995337 C81.40474,44.1780753 82.5625938,43.3624276 84.505219,43.3579741 C86.142921,43.354575 87.3545847,43.93123 87.8352871,45.1603349 L86.7380763,45.7525245 C86.410775,44.8890783 85.6570939,44.402899 84.4464551,44.4054597 C83.4192826,44.4078496 82.8094363,44.774874 82.8111446,45.3947184 C82.8123404,45.9945899 83.1587741,46.2680657 84.0745684,46.4090713 L85.5600651,46.6289445 C87.0559821,46.8491592 87.8708187,47.4068655 87.8737284,48.6975964 C87.8766268,50.0496117 86.7596003,50.9770738 84.6338504,50.9816997 C82.6604767,50.9859506 81.4177227,50.175595 80.998005,48.8952774" id="Fill-14" fill="#FFFFFF"></path>
                    <polygon id="Fill-16" fill="#FFFFFF" points="89.6695578 50.767409 89.653671 43.5505148 91.0675919 43.5476128 91.083137 50.7643362"></polygon>
                    <path d="M93.4482302,43.5422696 L95.0454466,43.5386847 L98.5142248,48.2881508 C98.7286106,48.5928664 98.8917487,48.8668543 99.0041517,49.1413544 L99.0246508,49.1413544 C99.0138888,48.8562704 99.0132055,48.5617973 99.0125222,48.1957972 L99.0024435,43.5304906 L100.273554,43.5274179 L100.28927,50.744312 L98.7738793,50.7475555 L95.2237882,45.9574607 C95.0295598,45.6629876 94.8460935,45.3785864 94.7435983,45.114841 L94.7130206,45.114841 C94.7237826,45.3995836 94.7348862,45.6841555 94.7355695,46.0501556 L94.7459899,50.7562617 L93.4639461,50.7591637 L93.4482302,43.5422696 Z" id="Fill-18" fill="#FFFFFF"></path>
                    <polygon id="Fill-20" fill="#FFFFFF" points="108.415463 49.6489577 108.417855 50.7266437 102.670609 50.7394468 102.654893 43.522382 108.330905 43.5100909 108.333638 44.5876062 104.071376 44.5964831 104.075305 46.5282262 108.164521 46.5191787 108.166742 47.5663077 104.077697 47.5751846 104.082309 49.6586881"></polygon>
                    <path d="M109.57453,48.8334295 L110.753225,48.3026952 C111.101025,49.2064287 111.895875,49.8453925 113.258719,49.8424905 C114.326889,49.8399298 115.027956,49.5232646 115.026419,48.7711207 C115.025052,48.1000636 114.597135,47.8568033 113.691761,47.7168219 L112.145109,47.5065084 C110.781581,47.2961949 109.986731,46.6780575 109.983998,45.4376859 C109.981265,44.1162274 111.139119,43.3002383 113.081744,43.2961262 C114.719446,43.2927271 115.93111,43.8693822 116.411983,45.098487 L115.314772,45.6906766 C114.987471,44.8272304 114.233619,44.3410512 113.023151,44.3434411 C111.995808,44.3456603 111.386132,44.7128554 111.38767,45.3328705 C111.388865,45.932742 111.735299,46.2062178 112.651093,46.3468821 L114.13659,46.5670967 C115.632507,46.7873113 116.447515,47.3448469 116.450254,48.6357485 C116.453323,49.9877638 115.336296,50.9150552 113.210375,50.9198518 C111.237002,50.9241028 109.994248,50.1137471 109.57453,48.8334295" id="Fill-22" fill="#FFFFFF"></path>
                    <path d="M117.540096,48.8160855 L118.71862,48.2853512 C119.066591,49.1890847 119.861612,49.8280485 121.224456,49.8251464 C122.292626,49.8225858 122.993864,49.5059206 122.991985,48.7537767 C122.990618,48.0827196 122.562359,47.8396299 121.657156,47.6994778 L120.110675,47.4895057 C118.746977,47.2788508 117.952297,46.6607135 117.949393,45.4203418 C117.946831,44.0988834 119.104514,43.2832357 121.047139,43.2787822 C122.684841,43.2753831 123.896676,43.8520381 124.377378,45.081143 L123.280338,45.6733326 C122.952695,44.8098864 122.199014,44.3237071 120.988546,44.3262678 C119.961374,44.3283163 119.351527,44.6955114 119.353236,45.3155265 C119.354602,45.915398 119.700694,46.1888738 120.616659,46.329538 L122.102156,46.5497526 C123.598073,46.7699673 124.412739,47.3276736 124.41565,48.6184044 C124.418889,49.9704198 123.30152,50.8977112 121.175941,50.9025078 C119.202226,50.9067587 117.959814,50.0964031 117.540096,48.8160855" id="Fill-24" fill="#FFFFFF"></path>
                    <path d="M129.845842,47.0719856 C129.8409,44.80497 131.352704,43.2564685 133.804218,43.2508228 C135.818419,43.2467381 137.082184,44.2605789 137.400944,45.8659265 L135.946879,46.0827269 C135.740864,45.0159663 134.976762,44.3771732 133.765953,44.3797338 C132.230063,44.383148 131.307094,45.4321549 131.310681,47.0584996 C131.313756,48.6338024 132.24185,49.7399968 133.808147,49.7365826 C134.95763,49.734022 135.72959,49.1327848 135.991806,48.0952155 L137.40624,48.3663014 C136.982081,49.8922692 135.763584,50.870944 133.770224,50.8750552 C131.257554,50.8805037 129.850808,49.3082737 129.845842,47.0719856" id="Fill-26" fill="#FFFFFF"></path>
                    <path d="M145.155585,47.0386462 C145.151988,45.3819152 144.183238,44.3366639 142.637269,44.3398999 C141.091129,44.3434923 140.126991,45.3928406 140.130568,47.0495716 C140.133995,48.6858174 141.102745,49.7513831 142.648885,49.7476374 C144.195024,49.7445547 145.159162,48.6953771 145.155585,47.0386462 M138.655832,47.052815 C138.65089,44.7147844 140.223849,43.2371272 142.634706,43.2318228 C145.045564,43.2268847 146.625697,44.6973721 146.630663,47.0354027 C146.635605,49.3633615 145.062134,50.8507491 142.651276,50.8557146 C140.240761,50.8611624 138.660798,49.3703606 138.655832,47.052815" id="Fill-28" fill="#FFFFFF"></path>
                    <path d="M152.573458,47.8455194 L151.673209,45.6319356 C151.459336,45.1747769 151.326092,44.8804746 151.223768,44.4743578 L151.203268,44.4743578 C151.092403,44.8809867 150.960867,45.1758012 150.747677,45.6339841 L149.857678,47.8514942 L152.573458,47.8455194 Z M152.982414,48.8714805 L149.452822,48.8793332 L148.744922,50.6393431 L147.270016,50.6425865 L150.407906,43.418864 L152.00461,43.4154498 L155.17359,50.6255156 L153.698513,50.6287591 L152.982414,48.8714805 Z" id="Fill-30" fill="#FFFFFF"></path>
                    <path d="M155.797602,47.0156346 C155.792661,44.7487896 157.304806,43.1999468 159.755978,43.1946424 C161.770179,43.1905578 163.033944,44.2043986 163.352704,45.8097461 L161.89864,46.0263759 C161.692624,44.9592739 160.928181,44.3209929 159.717713,44.3235535 C158.181823,44.326797 157.258854,45.3759745 157.262271,47.0023193 C157.265516,48.5776221 158.193439,49.6838165 159.760249,49.6800609 C160.90939,49.6778416 161.68135,49.0766045 161.943567,48.0388644 L163.358,48.3099503 C162.934183,49.8359182 161.715686,50.8144222 159.721642,50.8188749 C157.209315,50.8243234 155.802568,49.2520934 155.797602,47.0156346" id="Fill-32" fill="#FFFFFF"></path>
                    <polygon id="Fill-34" fill="#FFFFFF" points="172 50.5888644 170.585908 50.5921079 170.579075 47.4613046 166.551357 47.4698401 166.55819 50.6006433 165.143927 50.6037161 165.128211 43.3868219 166.542645 43.3839199 166.548965 46.3824237 170.576684 46.3737175 170.570192 43.3752137 171.984455 43.3719702"></polygon>
                    <g id="Group-38" transform="translate(12.985489, 38.942703)">
                        <mask id="mask-2" fill="white">
                            <use xlink:href="#path-1"></use>
                        </mask>
                        <g id="Clip-37"></g>
                        <path d="M2.0152259,1.93208459 L4.13192201,1.93208459 C5.19343034,1.93208459 6.01937059,2.68695984 6.02466618,3.74177082 C6.01937059,4.81638405 5.19343034,5.57484419 4.13192201,5.57484419 L2.0152259,5.57484419 L2.0152259,1.93208459 Z M5.99904239,7.09552006 C7.21104779,6.50367192 8.03767135,5.26159315 8.03767135,3.74177082 C8.02673853,1.59152011 6.36085034,0.00631623342 4.2878855,0 L0,0 L0,11.8798108 L2.0152259,11.8798108 L2.0152259,7.4883215 L3.55162852,7.4883215 L5.85554915,9.94175141 C7.64306494,11.8279153 9.33543104,12.0573482 11.2321042,12.0573482 L11.4396569,12.0573482 L11.4396569,10.1459194 L11.2915514,10.1459194 C10.3321966,10.1435295 8.85507034,10.0303494 7.45037401,8.62609706 L5.99904239,7.09552006 Z" id="Fill-36" fill="#D9A767" mask="url(#mask-2)"></path>
                    </g>
                    <path d="M8.16254463,45.6599661 L3.86218889,45.6599661 C4.41754189,43.9981138 5.20829214,42.3857672 6.00690035,41.238432 C6.80704599,42.3857672 7.60018779,43.9981138 8.16254463,45.6599661 L8.16254463,45.6599661 Z M11.9622115,50.6301589 C10.8330563,46.7272388 9.05322767,41.3212258 6.77817651,38.9808053 L6.72829553,38.9425665 L5.292509,38.9425665 L5.23562418,38.9808053 C2.96125633,41.3212258 1.18399006,46.7272388 0.0623512293,50.6301589 L0,50.822548 L2.27573446,50.822548 L2.30545806,50.7158549 C2.61277275,49.5857612 2.86234849,48.575676 3.23816412,47.4455823 L8.78486115,47.4455823 C9.16238503,48.575676 9.40734849,49.5857612 9.7114175,50.7158549 L9.7418244,50.822548 L12.0199504,50.822548 L11.9622115,50.6301589 Z" id="Fill-39" fill="#D9A767"></path>
                    <path d="M30.3400398,44.6448791 L36.7242933,38.922713 L34.0242288,38.922713 L27.580699,44.6976281 L31.5098514,48.8666836 C33.2896801,50.7566031 34.9866584,50.9839875 36.8835024,50.9839875 L37.0893469,50.9839875 L37.0893469,49.0645354 L36.9489285,49.0645354 C35.9779576,49.0645354 34.487507,48.9576715 33.096135,47.5407867 L30.3400398,44.6448791 Z M25.4624655,50.805938 L27.4778622,50.805938 L27.4778622,38.9228837 L25.4624655,38.9228837 L25.4624655,50.805938 Z" id="Fill-41" fill="#D9A767"></path>
                    <path d="M55.4382716,45.6639777 L51.1169044,45.6639777 C51.6908773,43.9980285 52.4894856,42.3921688 53.2802358,41.24398 C54.0757692,42.3921688 54.8759148,43.9980285 55.4382716,45.6639777 L55.4382716,45.6639777 Z M59.2387926,50.6302443 C58.1079292,46.7273242 56.3164844,41.3274567 54.0460456,38.9897675 L54.00556,38.948968 L52.5533742,38.948968 L52.5190383,38.9897675 C50.2356167,41.3274567 48.4557881,46.7273242 47.3233873,50.6302443 L47.2726522,50.8248526 L49.5444576,50.8248526 L49.5757187,50.7159402 C49.8799585,49.5897729 50.1302175,48.5793462 50.5084247,47.448399 L56.0535843,47.448399 C56.4232502,48.5793462 56.672826,49.5897729 56.9864612,50.7159402 L57.0105476,50.8248526 L59.286282,50.8248526 L59.2387926,50.6302443 Z" id="Fill-43" fill="#D9A767"></path>
                    <polygon id="Fill-45" fill="#D9A767" points="46.3881872 40.8427797 46.3881872 38.9115486 38.3387289 38.9115486 38.3387289 50.7930665 46.3881872 50.7930665 46.3881872 48.8841984 40.3587379 48.8841984 40.3587379 45.6152915 45.1037518 45.6152915 45.1037518 43.7023263 40.3587379 43.7023263 40.3587379 40.8427797"></polygon>
                </g>
            </g>
        </g>
    </g>
</svg>