<svg id="Groupe_409" data-name="Groupe 409" xmlns="http://www.w3.org/2000/svg" xmlns:xlink="http://www.w3.org/1999/xlink" width="260" height="47.572" viewBox="0 0 260 47.572">
  <defs>
    <clipPath id="clip-path">
      <rect id="Rectangle_83" data-name="Rectangle 83" width="260" height="47.572" fill="none"/>
    </clipPath>
  </defs>
  <g id="Groupe_73" data-name="Groupe 73" clip-path="url(#clip-path)">
    <path id="Tracé_57" data-name="Tracé 57" d="M382.25,45.141a2.376,2.376,0,0,1-1.266,2.132,3.511,3.511,0,0,0,1.466.333h7.429a3.462,3.462,0,0,0,3.465-3.464v-8a22.606,22.606,0,0,1-3.265-12.027A22.256,22.256,0,0,1,396.809,7.8,22.671,22.671,0,0,1,407,1.766a2.838,2.838,0,0,0-2.532-.932L400.107.8a17.387,17.387,0,0,0-9.428,2.3h-.067V2.3A1.863,1.863,0,0,0,388.746.433h-7.362a3.36,3.36,0,0,0-.833.133A2.486,2.486,0,0,1,382.217,2.9Z" transform="translate(-173.654 -0.198)" fill="#0049e5"/>
    <path id="Tracé_58" data-name="Tracé 58" d="M442.6,32.712l-7-3.464a3.658,3.658,0,0,0-1.633-.533c-.7,0-1.6.6-2.7,1.765a9.381,9.381,0,0,1-7.029,3.432,9.329,9.329,0,0,1-9.428-9.428,9.385,9.385,0,0,1,9.494-9.427,11.713,11.713,0,0,1,7.5,3.164l.233.166a2.711,2.711,0,0,0,1.766.733,3.357,3.357,0,0,0,1.965-.833l5.63-4.2a2.918,2.918,0,0,0,1.4-2.232c0-.766-.6-1.732-1.8-2.965q-7.446-7.646-17.09-7.663a23.38,23.38,0,0,0-6.2.8,3.278,3.278,0,0,1,.533,2.1l-.033,8.362c.066,2.1-.966,3.132-3.1,3.065H410.75a6.677,6.677,0,0,0-4.964,1.965,5.54,5.54,0,0,0-1.766,4.131V36.443a23.59,23.59,0,0,0,3.565,4.464,22.262,22.262,0,0,0,16.424,6.829q10.344,0,17.656-8.395c1.8-2.032,2.7-3.465,2.7-4.365s-.566-1.665-1.766-2.266" transform="translate(-184.364 -0.561)" fill="#ffcd00"/>
    <path id="Tracé_59" data-name="Tracé 59" d="M401.369,22.322a5.54,5.54,0,0,1,1.766-4.131,6.807,6.807,0,0,1,4.964-1.966h4.364c2.1.067,3.132-.966,3.1-3.065l.033-8.362a3.088,3.088,0,0,0-.533-2.1,22.666,22.666,0,0,0-10.194,6.03,22.311,22.311,0,0,0-6.73,16.324A22.521,22.521,0,0,0,401.4,37.08Z" transform="translate(-181.679 -1.232)" fill="#3ba935"/>
    <path id="Tracé_60" data-name="Tracé 60" d="M340.784,44.08V2.8a2.429,2.429,0,0,1,1.6-2.3,2.309,2.309,0,0,0-.833-.133h-8.728a1.92,1.92,0,0,0-1.9,1.9v1.2a23.256,23.256,0,1,0-10.76,43.875,23.116,23.116,0,0,0,11.76-3.2v.933a2.46,2.46,0,0,0,2.466,2.465h7.2a2.4,2.4,0,0,0,1.2-.333,3.411,3.411,0,0,1-2-3.132M320.2,33.752a9.629,9.629,0,1,1,9.495-9.628,9.562,9.562,0,0,1-9.495,9.628" transform="translate(-135.486 -0.169)" fill="#e4007d"/>
    <path id="Tracé_61" data-name="Tracé 61" d="M380.875,3.01A2.485,2.485,0,0,0,379.209.678a2.428,2.428,0,0,0-1.6,2.3V44.253a3.5,3.5,0,0,0,2.032,3.165,2.522,2.522,0,0,0,1.266-2.132Z" transform="translate(-172.312 -0.309)" fill="#672381"/>
    <path id="Tracé_62" data-name="Tracé 62" d="M7.82,3.1V5.383H2.981v2.5H6.57v2.229H2.981V14.9H.1V3.1Z" transform="translate(-0.046 -1.415)"/>
    <path id="Tracé_63" data-name="Tracé 63" d="M18.392,16.379a4.326,4.326,0,0,1-1.74-1.685A4.827,4.827,0,0,1,16,12.139a4.964,4.964,0,0,1,.652-2.555A4.314,4.314,0,0,1,18.392,7.9a5.528,5.528,0,0,1,5,0,4.327,4.327,0,0,1,1.74,1.685,4.964,4.964,0,0,1,.652,2.555,4.964,4.964,0,0,1-.652,2.555,4.128,4.128,0,0,1-1.794,1.685,5.476,5.476,0,0,1-2.5.6,5.42,5.42,0,0,1-2.447-.6m3.914-2.5a2.4,2.4,0,0,0,.6-1.74,2.476,2.476,0,0,0-.544-1.74,1.885,1.885,0,0,0-1.414-.6,1.974,1.974,0,0,0-1.414.6,2.39,2.39,0,0,0-.544,1.74,2.476,2.476,0,0,0,.544,1.74,1.853,1.853,0,0,0,1.359.6,2.071,2.071,0,0,0,1.414-.6" transform="translate(-7.301 -3.331)"/>
    <path id="Tracé_64" data-name="Tracé 64" d="M45.173,8.433a4.164,4.164,0,0,1,.979,2.936V16.86H43.27V11.749a1.994,1.994,0,0,0-.489-1.468,1.8,1.8,0,0,0-1.3-.544,1.612,1.612,0,0,0-1.3.544,1.994,1.994,0,0,0-.489,1.468V16.86H36.8V7.509h2.881v1.25a2.658,2.658,0,0,1,1.2-.979A4.049,4.049,0,0,1,42.563,7.4a3.362,3.362,0,0,1,2.61,1.033" transform="translate(-16.793 -3.377)"/>
    <path id="Tracé_65" data-name="Tracé 65" d="M57.244,7.119a4.468,4.468,0,0,1,1.468-1.685,4.016,4.016,0,0,1,2.12-.6,3.5,3.5,0,0,1,1.685.381,3.182,3.182,0,0,1,1.2,1.033V1.9h2.881V14.35H63.713V12.991a3.14,3.14,0,0,1-1.142,1.087,3.569,3.569,0,0,1-1.74.381,4.162,4.162,0,0,1-2.12-.6,3.7,3.7,0,0,1-1.468-1.685A5.52,5.52,0,0,1,56.7,9.62a5.293,5.293,0,0,1,.544-2.5m5.872.87a1.818,1.818,0,0,0-1.468-.6,2.1,2.1,0,0,0-1.468.6,2.449,2.449,0,0,0-.6,1.685,2.355,2.355,0,0,0,.6,1.685,1.862,1.862,0,0,0,1.468.652,2.1,2.1,0,0,0,1.468-.6,2.449,2.449,0,0,0,.6-1.685,2.194,2.194,0,0,0-.6-1.74" transform="translate(-25.874 -0.867)"/>
    <path id="Tracé_66" data-name="Tracé 66" d="M78.244,9.583A4.468,4.468,0,0,1,79.712,7.9a4.016,4.016,0,0,1,2.12-.6,3.569,3.569,0,0,1,1.74.381,2.753,2.753,0,0,1,1.142,1.087v-1.3h2.882v9.406H84.713v-1.3a2.921,2.921,0,0,1-1.2,1.087,3.569,3.569,0,0,1-1.74.381,3.828,3.828,0,0,1-2.066-.6,3.7,3.7,0,0,1-1.468-1.685,5.52,5.52,0,0,1-.544-2.555,6.18,6.18,0,0,1,.544-2.61m5.926.87a1.818,1.818,0,0,0-1.468-.6,2.1,2.1,0,0,0-1.468.6,2.449,2.449,0,0,0-.6,1.685,2.355,2.355,0,0,0,.6,1.685,1.862,1.862,0,0,0,1.468.652,2.1,2.1,0,0,0,1.468-.6,2.449,2.449,0,0,0,.6-1.685,2.4,2.4,0,0,0-.6-1.74" transform="translate(-35.456 -3.331)"/>
    <path id="Tracé_67" data-name="Tracé 67" d="M104.526,12.643v2.447h-1.468a3.759,3.759,0,0,1-2.447-.761,3.107,3.107,0,0,1-.87-2.5V8.076H98.6V5.683h1.142V3.4h2.881V5.683h1.9V8.076h-1.9v3.751a.677.677,0,0,0,.217.6,1.045,1.045,0,0,0,.652.163h1.033Z" transform="translate(-44.993 -1.551)"/>
    <path id="Tracé_68" data-name="Tracé 68" d="M112.389,2.664a1.369,1.369,0,0,1-.489-1.087,1.565,1.565,0,0,1,.489-1.142A1.835,1.835,0,0,1,113.64,0a1.693,1.693,0,0,1,1.2.435,1.4,1.4,0,0,1,.489,1.142,1.369,1.369,0,0,1-.489,1.087,1.791,1.791,0,0,1-1.2.435,1.492,1.492,0,0,1-1.25-.435m2.664,10.874h-2.881V4.132h2.881Z" transform="translate(-51.063 0)"/>
    <path id="Tracé_69" data-name="Tracé 69" d="M122.892,16.379a4.326,4.326,0,0,1-1.74-1.685,4.827,4.827,0,0,1-.652-2.555,4.964,4.964,0,0,1,.652-2.555,4.314,4.314,0,0,1,1.74-1.685,5.528,5.528,0,0,1,5,0,4.327,4.327,0,0,1,1.74,1.685,4.963,4.963,0,0,1,.652,2.555,4.963,4.963,0,0,1-.652,2.555,4.128,4.128,0,0,1-1.794,1.685,5.476,5.476,0,0,1-2.5.6,5.091,5.091,0,0,1-2.447-.6m3.86-2.5a2.4,2.4,0,0,0,.6-1.74,2.476,2.476,0,0,0-.544-1.74,1.885,1.885,0,0,0-1.414-.6,1.974,1.974,0,0,0-1.414.6,2.39,2.39,0,0,0-.544,1.74,2.476,2.476,0,0,0,.544,1.74,1.853,1.853,0,0,0,1.359.6,1.885,1.885,0,0,0,1.414-.6" transform="translate(-54.987 -3.331)"/>
    <path id="Tracé_70" data-name="Tracé 70" d="M149.673,8.433a4.164,4.164,0,0,1,.979,2.936V16.86h-2.827V11.749a1.994,1.994,0,0,0-.489-1.468,1.8,1.8,0,0,0-1.3-.544,1.612,1.612,0,0,0-1.3.544,1.994,1.994,0,0,0-.489,1.468V16.86H141.3V7.509h2.881v1.25a2.658,2.658,0,0,1,1.2-.979,4.049,4.049,0,0,1,1.685-.381,3.362,3.362,0,0,1,2.61,1.033" transform="translate(-64.478 -3.377)"/>
    <path id="Tracé_71" data-name="Tracé 71" d="M2.555,39.7a3.988,3.988,0,0,1,2.283-.6,4.407,4.407,0,0,1,2.229.6,4.142,4.142,0,0,1,1.577,1.631,6.024,6.024,0,0,1,0,5,4.693,4.693,0,0,1-1.577,1.685,4.407,4.407,0,0,1-2.229.6,4.462,4.462,0,0,1-2.283-.6,4.17,4.17,0,0,1-1.414-1.522v6.252H0V39.209H1.142V41.22A3.788,3.788,0,0,1,2.555,39.7m5,2.12a2.956,2.956,0,0,0-1.2-1.25,3.7,3.7,0,0,0-3.48,0,3.6,3.6,0,0,0-1.25,1.3A3.724,3.724,0,0,0,1.2,43.83a4.332,4.332,0,0,0,.435,1.957,3.6,3.6,0,0,0,1.25,1.3,3.191,3.191,0,0,0,1.74.435,3.586,3.586,0,0,0,1.74-.435,2.559,2.559,0,0,0,1.2-1.3,4.506,4.506,0,0,0,.435-1.957,4.405,4.405,0,0,0-.435-2.012" transform="translate(0 -17.842)"/>
    <path id="Tracé_72" data-name="Tracé 72" d="M22.129,47.962A3.931,3.931,0,0,1,20.5,46.331a5.528,5.528,0,0,1,0-5A4.273,4.273,0,0,1,22.129,39.7a4.868,4.868,0,0,1,4.676,0,3.931,3.931,0,0,1,1.631,1.631,5.154,5.154,0,0,1,.6,2.5,5.311,5.311,0,0,1-.6,2.5,4.557,4.557,0,0,1-1.685,1.685,4.819,4.819,0,0,1-2.338.6,5.537,5.537,0,0,1-2.283-.652m4.023-.87a3.077,3.077,0,0,0,1.25-1.25,4.008,4.008,0,0,0,.489-2.066A4.148,4.148,0,0,0,27.4,41.71a3.077,3.077,0,0,0-1.25-1.25,3.7,3.7,0,0,0-1.685-.435,3.369,3.369,0,0,0-1.631.489,3.077,3.077,0,0,0-1.25,1.25A4.008,4.008,0,0,0,21.1,43.83a4.148,4.148,0,0,0,.489,2.066,3.077,3.077,0,0,0,1.25,1.25,3.7,3.7,0,0,0,1.685.435,4.358,4.358,0,0,0,1.631-.489" transform="translate(-9.081 -17.842)"/>
    <path id="Tracé_73" data-name="Tracé 73" d="M48.7,39.254v9.188H47.5V46.811a2.658,2.658,0,0,1-1.25,1.3,3.647,3.647,0,0,1-1.9.435,3.689,3.689,0,0,1-2.718-1.033A3.872,3.872,0,0,1,40.6,44.582V39.2h1.142v5.219A3.3,3.3,0,0,0,42.5,46.7a2.663,2.663,0,0,0,2.066.816,2.868,2.868,0,0,0,2.12-.816,3.463,3.463,0,0,0,.816-2.5v-5h1.2Z" transform="translate(-18.527 -17.888)"/>
    <path id="Tracé_74" data-name="Tracé 74" d="M62.792,39.389a3.735,3.735,0,0,1,1.957-.489v1.25h-.326a2.587,2.587,0,0,0-2.827,2.99v5.165H60.4V39.117h1.2v1.631a2.92,2.92,0,0,1,1.2-1.359" transform="translate(-27.562 -17.751)"/>
    <rect id="Rectangle_81" data-name="Rectangle 81" width="1.196" height="12.45" transform="translate(43.549 18.104)"/>
    <path id="Tracé_75" data-name="Tracé 75" d="M86.844,41.329A4.141,4.141,0,0,1,88.42,39.7a4.658,4.658,0,0,1,4.567,0,3.188,3.188,0,0,1,1.359,1.577V39.263h1.2V48.4h-1.2V46.331a3.565,3.565,0,0,1-1.414,1.577,3.988,3.988,0,0,1-2.283.6,4.407,4.407,0,0,1-2.229-.6,3.955,3.955,0,0,1-1.577-1.685,5.293,5.293,0,0,1-.544-2.5,4.856,4.856,0,0,1,.544-2.392m7.013.544a3.6,3.6,0,0,0-1.25-1.3,3.191,3.191,0,0,0-1.74-.435,3.586,3.586,0,0,0-1.74.435,2.669,2.669,0,0,0-1.2,1.25,4.621,4.621,0,0,0,0,3.914,3.457,3.457,0,0,0,1.2,1.3,3.7,3.7,0,0,0,3.48,0,3.6,3.6,0,0,0,1.25-1.3,3.724,3.724,0,0,0,.435-1.957,3.192,3.192,0,0,0-.435-1.9" transform="translate(-39.381 -17.842)"/>
    <path id="Tracé_76" data-name="Tracé 76" d="M118.286,39.235a3.531,3.531,0,0,1,1.685-.435v3.045h-.816a2.435,2.435,0,0,0-1.631.489,2.04,2.04,0,0,0-.544,1.631v4.349H114.1v-9.46h2.882v1.577a4.508,4.508,0,0,1,1.3-1.2" transform="translate(-52.066 -17.705)"/>
    <path id="Tracé_77" data-name="Tracé 77" d="M135.806,44.191h-6.524a2.077,2.077,0,0,0,.544,1.359,1.687,1.687,0,0,0,1.2.489,1.625,1.625,0,0,0,1.522-.924h3.045a4.169,4.169,0,0,1-.87,1.685,4.491,4.491,0,0,1-1.522,1.142,5.009,5.009,0,0,1-2.066.435,5.091,5.091,0,0,1-2.447-.6A4.191,4.191,0,0,1,127,46.094a5.758,5.758,0,0,1,0-5.111,4.191,4.191,0,0,1,1.685-1.685,5.154,5.154,0,0,1,2.5-.6,5.091,5.091,0,0,1,2.447.6,4.409,4.409,0,0,1,1.685,1.631,5.154,5.154,0,0,1,.6,2.5,3.208,3.208,0,0,0-.109.761m-2.936-1.577a1.6,1.6,0,0,0-.489-1.2,1.682,1.682,0,0,0-1.25-.435,1.791,1.791,0,0,0-1.2.435,1.812,1.812,0,0,0-.6,1.2Z" transform="translate(-57.679 -17.66)"/>
    <path id="Tracé_78" data-name="Tracé 78" d="M146.1,40.983a4.192,4.192,0,0,1,1.685-1.685,5.091,5.091,0,0,1,2.447-.6,4.622,4.622,0,0,1,2.936.924,4.547,4.547,0,0,1,1.577,2.61H151.7a1.518,1.518,0,0,0-1.522-1.087,1.547,1.547,0,0,0-1.25.6,2.759,2.759,0,0,0-.489,1.74,2.656,2.656,0,0,0,.489,1.74,1.47,1.47,0,0,0,1.25.6,1.518,1.518,0,0,0,1.522-1.087h3.045a4.616,4.616,0,0,1-1.577,2.61,4.516,4.516,0,0,1-2.936.924,5.091,5.091,0,0,1-2.447-.6,4.557,4.557,0,0,1-1.685-1.685,5.376,5.376,0,0,1-.6-2.555,4.938,4.938,0,0,1,.6-2.447" transform="translate(-66.395 -17.66)"/>
    <path id="Tracé_79" data-name="Tracé 79" d="M173.673,37.323a4.164,4.164,0,0,1,.979,2.936V45.75h-2.827V40.64a1.994,1.994,0,0,0-.489-1.468,1.8,1.8,0,0,0-1.3-.544,1.612,1.612,0,0,0-1.3.544,1.994,1.994,0,0,0-.489,1.468V45.75H165.3V33.3h2.881v4.349a2.658,2.658,0,0,1,1.2-.979,3.5,3.5,0,0,1,1.685-.381,3.185,3.185,0,0,1,2.61,1.033" transform="translate(-75.43 -15.196)"/>
    <path id="Tracé_80" data-name="Tracé 80" d="M194.506,44.191h-6.524a2.077,2.077,0,0,0,.544,1.359,1.687,1.687,0,0,0,1.2.489,1.625,1.625,0,0,0,1.522-.924h3.045a4.169,4.169,0,0,1-.87,1.685,4.491,4.491,0,0,1-1.522,1.142,5.009,5.009,0,0,1-2.066.435,5.091,5.091,0,0,1-2.447-.6,4.191,4.191,0,0,1-1.685-1.685,5.758,5.758,0,0,1,0-5.111,4.191,4.191,0,0,1,1.685-1.685,5.154,5.154,0,0,1,2.5-.6,5.091,5.091,0,0,1,2.447.6,4.409,4.409,0,0,1,1.685,1.631,5.154,5.154,0,0,1,.6,2.5c-.054.217-.054.489-.109.761m-2.881-1.577a1.6,1.6,0,0,0-.489-1.2,1.682,1.682,0,0,0-1.25-.435,1.791,1.791,0,0,0-1.2.435,1.812,1.812,0,0,0-.6,1.2Z" transform="translate(-84.465 -17.66)"/>
    <path id="Tracé_81" data-name="Tracé 81" d="M209.432,39.235a3.531,3.531,0,0,1,1.685-.435v3.045H210.3a2.435,2.435,0,0,0-1.631.489,2.041,2.041,0,0,0-.544,1.631v4.349H205.3v-9.46h2.882v1.577a3.748,3.748,0,0,1,1.25-1.2" transform="translate(-93.683 -17.705)"/>
    <path id="Tracé_82" data-name="Tracé 82" d="M218.1,40.983a4.191,4.191,0,0,1,1.685-1.685,5.091,5.091,0,0,1,2.447-.6,4.622,4.622,0,0,1,2.936.924,4.547,4.547,0,0,1,1.577,2.61H223.7a1.518,1.518,0,0,0-1.522-1.087,1.547,1.547,0,0,0-1.25.6,2.759,2.759,0,0,0-.489,1.74,2.656,2.656,0,0,0,.489,1.74,1.47,1.47,0,0,0,1.25.6,1.518,1.518,0,0,0,1.522-1.087h3.045a4.616,4.616,0,0,1-1.577,2.61,4.516,4.516,0,0,1-2.936.924,5.091,5.091,0,0,1-2.447-.6,4.557,4.557,0,0,1-1.685-1.685,5.376,5.376,0,0,1-.6-2.555,4.938,4.938,0,0,1,.6-2.447" transform="translate(-99.25 -17.66)"/>
    <path id="Tracé_83" data-name="Tracé 83" d="M245.673,37.323a4.164,4.164,0,0,1,.979,2.936V45.75h-2.827V40.64a1.994,1.994,0,0,0-.489-1.468,1.8,1.8,0,0,0-1.3-.544,1.612,1.612,0,0,0-1.3.544,1.994,1.994,0,0,0-.489,1.468V45.75H237.3V33.3h2.881v4.349a2.659,2.659,0,0,1,1.2-.979,3.5,3.5,0,0,1,1.685-.381,3.118,3.118,0,0,1,2.61,1.033" transform="translate(-108.285 -15.196)"/>
    <path id="Tracé_84" data-name="Tracé 84" d="M266.506,44.191h-6.524a2.076,2.076,0,0,0,.544,1.359,1.686,1.686,0,0,0,1.2.489,1.625,1.625,0,0,0,1.522-.924h3.045a4.168,4.168,0,0,1-.87,1.685,4.49,4.49,0,0,1-1.522,1.142,5.009,5.009,0,0,1-2.066.435,5.091,5.091,0,0,1-2.447-.6,4.192,4.192,0,0,1-1.685-1.685,5.758,5.758,0,0,1,0-5.111,4.192,4.192,0,0,1,1.685-1.685,5.154,5.154,0,0,1,2.5-.6,5.091,5.091,0,0,1,2.447.6,4.409,4.409,0,0,1,1.685,1.631,5.154,5.154,0,0,1,.6,2.5c-.054.217-.054.489-.109.761m-2.881-1.577a1.6,1.6,0,0,0-.489-1.2,1.682,1.682,0,0,0-1.251-.435,1.791,1.791,0,0,0-1.2.435,1.812,1.812,0,0,0-.6,1.2Z" transform="translate(-117.321 -17.66)"/>
    <path id="Tracé_85" data-name="Tracé 85" d="M77.842,78.753A2.822,2.822,0,0,1,76.7,76.742h1.2a1.832,1.832,0,0,0,.707,1.25,2.868,2.868,0,0,0,1.74.489,2.531,2.531,0,0,0,1.522-.435,1.366,1.366,0,0,0,.544-1.142.912.912,0,0,0-.326-.761,2.623,2.623,0,0,0-.761-.489c-.326-.109-.707-.217-1.25-.381a12.389,12.389,0,0,1-1.685-.544A2.295,2.295,0,0,1,76.863,72.5a2.115,2.115,0,0,1,.381-1.25,2.775,2.775,0,0,1,1.142-.924A4.053,4.053,0,0,1,80.071,70a3.707,3.707,0,0,1,2.392.761,2.782,2.782,0,0,1,.979,2.066h-1.2a1.7,1.7,0,0,0-.652-1.3,2.378,2.378,0,0,0-1.577-.489,2.474,2.474,0,0,0-1.468.435A1.242,1.242,0,0,0,78,72.5a1.148,1.148,0,0,0,.326.87,2.151,2.151,0,0,0,.816.544c.326.109.761.272,1.3.435a10.339,10.339,0,0,1,1.577.544,3.383,3.383,0,0,1,1.033.761,1.984,1.984,0,0,1,.435,1.3,2.167,2.167,0,0,1-.381,1.3,2.775,2.775,0,0,1-1.142.924,4.053,4.053,0,0,1-1.685.326,4.5,4.5,0,0,1-2.447-.761" transform="translate(-35 -31.943)"/>
    <path id="Tracé_86" data-name="Tracé 86" d="M101.4,70.2v9.243h-1.2V77.811a2.658,2.658,0,0,1-1.25,1.3,3.647,3.647,0,0,1-1.9.435,3.689,3.689,0,0,1-2.718-1.033A3.872,3.872,0,0,1,93.3,75.582V70.2h1.142v5.219A3.3,3.3,0,0,0,95.2,77.7a2.663,2.663,0,0,0,2.066.816,2.868,2.868,0,0,0,2.12-.816,3.463,3.463,0,0,0,.816-2.5v-5Z" transform="translate(-42.575 -32.034)"/>
    <path id="Tracé_87" data-name="Tracé 87" d="M115.492,70.389a3.735,3.735,0,0,1,1.957-.489v1.25h-.326a2.587,2.587,0,0,0-2.827,2.99v5.165h-1.2V70.063h1.2v1.631a3.072,3.072,0,0,1,1.2-1.3" transform="translate(-51.61 -31.897)"/>
    <rect id="Rectangle_82" data-name="Rectangle 82" width="1.196" height="12.505" transform="translate(72.255 34.904)"/>
    <path id="Tracé_88" data-name="Tracé 88" d="M147.716,75.165H140.1a4.351,4.351,0,0,0,.489,1.794,3.426,3.426,0,0,0,1.2,1.142,3.284,3.284,0,0,0,1.631.381,3.036,3.036,0,0,0,1.9-.544,2.5,2.5,0,0,0,1.033-1.522h1.25a3.583,3.583,0,0,1-1.468,2.175,4.676,4.676,0,0,1-2.773.87,4.819,4.819,0,0,1-2.338-.6,4.273,4.273,0,0,1-1.631-1.631,4.614,4.614,0,0,1-.6-2.5,5.154,5.154,0,0,1,.6-2.5,4.142,4.142,0,0,1,1.577-1.631,4.819,4.819,0,0,1,2.338-.6,4.462,4.462,0,0,1,2.283.6,4.091,4.091,0,0,1,1.522,1.522,4.172,4.172,0,0,1,.544,2.175,1.662,1.662,0,0,1,.054.87M146.14,72.5a2.34,2.34,0,0,0-1.2-1.087,3.283,3.283,0,0,0-1.631-.381,3.221,3.221,0,0,0-2.229.816,3.381,3.381,0,0,0-1.033,2.392h6.47a2.526,2.526,0,0,0-.381-1.74" transform="translate(-63.338 -31.943)"/>
    <path id="Tracé_89" data-name="Tracé 89" d="M164.8,71.883a4.191,4.191,0,0,1,1.685-1.685,5.092,5.092,0,0,1,2.447-.6,4.622,4.622,0,0,1,2.936.924,4.547,4.547,0,0,1,1.577,2.61H170.4a1.518,1.518,0,0,0-1.522-1.087,1.547,1.547,0,0,0-1.25.6,2.759,2.759,0,0,0-.489,1.74,2.656,2.656,0,0,0,.489,1.74,1.47,1.47,0,0,0,1.25.6,1.518,1.518,0,0,0,1.522-1.087h3.045a4.617,4.617,0,0,1-1.577,2.61,4.516,4.516,0,0,1-2.936.924,5.091,5.091,0,0,1-2.447-.6,4.557,4.557,0,0,1-1.685-1.685,5.376,5.376,0,0,1-.6-2.555,5.091,5.091,0,0,1,.6-2.447" transform="translate(-74.928 -31.76)"/>
    <path id="Tracé_90" data-name="Tracé 90" d="M183.544,71.883a4.469,4.469,0,0,1,1.468-1.685,4.016,4.016,0,0,1,2.12-.6,3.569,3.569,0,0,1,1.74.381,2.753,2.753,0,0,1,1.142,1.087v-1.3h2.881v9.406h-2.881v-1.3a2.921,2.921,0,0,1-1.2,1.087,3.713,3.713,0,0,1-1.74.381,3.828,3.828,0,0,1-2.066-.6,3.7,3.7,0,0,1-1.468-1.685A5.52,5.52,0,0,1,183,74.493a5.6,5.6,0,0,1,.544-2.61m5.872.87a1.818,1.818,0,0,0-1.468-.6,2.1,2.1,0,0,0-1.468.6,2.449,2.449,0,0,0-.6,1.685,2.355,2.355,0,0,0,.6,1.685,1.862,1.862,0,0,0,1.468.652,2.1,2.1,0,0,0,1.468-.6,2.449,2.449,0,0,0,.6-1.685,2.268,2.268,0,0,0-.6-1.74" transform="translate(-83.507 -31.76)"/>
    <path id="Tracé_91" data-name="Tracé 91" d="M213.473,70.787a4.164,4.164,0,0,1,.979,2.936v5.491H211.57V74.1a1.994,1.994,0,0,0-.489-1.468,1.8,1.8,0,0,0-1.3-.544,1.612,1.612,0,0,0-1.3.544,1.994,1.994,0,0,0-.489,1.468v5.111H205.1V69.809h2.881v1.25a2.658,2.658,0,0,1,1.2-.979,4.049,4.049,0,0,1,1.685-.381,3.3,3.3,0,0,1,2.61,1.087" transform="translate(-93.592 -31.806)"/>
    <path id="Tracé_92" data-name="Tracé 92" d="M225.5,71.883a4.191,4.191,0,0,1,1.685-1.685,5.091,5.091,0,0,1,2.447-.6,4.622,4.622,0,0,1,2.936.924,4.283,4.283,0,0,1,1.577,2.61H231.1a1.518,1.518,0,0,0-1.522-1.087,1.547,1.547,0,0,0-1.25.6,2.759,2.759,0,0,0-.489,1.74,2.656,2.656,0,0,0,.489,1.74,1.47,1.47,0,0,0,1.25.6,1.518,1.518,0,0,0,1.522-1.087h3.045a4.617,4.617,0,0,1-1.577,2.61,4.516,4.516,0,0,1-2.936.924,5.091,5.091,0,0,1-2.447-.6,4.557,4.557,0,0,1-1.685-1.685,5.376,5.376,0,0,1-.6-2.555,5.091,5.091,0,0,1,.6-2.447" transform="translate(-102.627 -31.76)"/>
    <path id="Tracé_93" data-name="Tracé 93" d="M253.006,75.191h-6.524a2.076,2.076,0,0,0,.544,1.359,1.687,1.687,0,0,0,1.2.489,1.625,1.625,0,0,0,1.522-.924h3.045a4.168,4.168,0,0,1-.87,1.685,4.491,4.491,0,0,1-1.522,1.142,5.009,5.009,0,0,1-2.066.435,5.091,5.091,0,0,1-2.447-.6,4.192,4.192,0,0,1-1.685-1.685,5.758,5.758,0,0,1,0-5.111,4.192,4.192,0,0,1,1.685-1.685,5.154,5.154,0,0,1,2.5-.6,5.091,5.091,0,0,1,2.447.6,4.408,4.408,0,0,1,1.685,1.631,5.154,5.154,0,0,1,.6,2.5c-.054.163-.054.489-.109.761m-2.881-1.577a1.6,1.6,0,0,0-.489-1.2,1.939,1.939,0,0,0-1.25-.435,1.791,1.791,0,0,0-1.2.435,1.813,1.813,0,0,0-.6,1.2Z" transform="translate(-111.16 -31.806)"/>
    <path id="Tracé_94" data-name="Tracé 94" d="M267.986,70.135a3.531,3.531,0,0,1,1.685-.435v3.045h-.816a2.435,2.435,0,0,0-1.631.489,2.041,2.041,0,0,0-.544,1.631v4.349H263.8V69.809h2.882v1.577a4.084,4.084,0,0,1,1.3-1.25" transform="translate(-120.378 -31.806)"/>
  </g>
</svg>
